<?xml version="1.0" encoding="utf-8"?>
<!-- Generator: Adobe Illustrator 19.1.0, SVG Export Plug-In . SVG Version: 6.00 Build 0)  -->
<svg version="1.1" id="Layer_1" xmlns="http://www.w3.org/2000/svg" xmlns:xlink="http://www.w3.org/1999/xlink" x="0px" y="0px"
	 viewBox="0 0 1024 1024" style="enable-background:new 0 0 1024 1024;" xml:space="preserve">
<style type="text/css">
	.st0{display:none;fill:none;stroke:#000000;stroke-width:36;stroke-miterlimit:10;}
	.st1{fill:#FFFFFF;}
</style>
<circle class="st0" cx="512" cy="512.3" r="484.9"/>
<g>
	<g>
		<path d="M890.3,76.7H133.7c-31.4,0-57,25.7-57,57v756.7c0,31.3,25.6,57,57,57h756.7c31.4,0,57-25.7,57-57V133.7
			C947.3,102.3,921.7,76.7,890.3,76.7z M379.5,637.2c0,6.9-1.3,13.3-3.8,19.1c-2.6,5.8-6.1,11-10.6,15.5s-9.8,8-15.8,10.6
			c-6,2.6-12.3,3.8-18.9,3.8c-13.2,0-24.6-4.8-34.2-14.4c-9.6-9.6-14.4-21.1-14.4-34.6V519.7c0-6.6,1.3-12.9,3.8-18.9
			c2.5-6,6-11.2,10.4-15.8c4.3-4.5,9.5-8,15.3-10.6c5.9-2.5,12.2-3.8,19.1-3.8c6.6,0,12.9,1.3,18.9,3.8c6,2.6,11.2,6.1,15.8,10.6
			s8,9.8,10.6,15.8c2.5,6,3.8,12.3,3.8,18.9V637.2z M497,637.2c0,6.9-1.3,13.3-3.8,19.1c-2.6,5.8-6.1,11-10.6,15.5s-9.8,8-15.8,10.6
			c-6,2.6-12.3,3.8-18.9,3.8c-13.2,0-24.6-4.8-34.2-14.4c-9.6-9.6-14.4-21.1-14.4-34.6V519.7c0-18.6-6.8-34.7-20.2-48.2
			s-29.7-20.2-48.6-20.2c-18.9,0-35.1,6.8-48.6,20.2c-13.2,13.2-19.8,29.2-19.8,48.2v117.5c0,6.9-1.3,13.4-3.8,19.3
			c-2.6,6-6,11.2-10.4,15.5c-4.4,4.4-9.5,7.8-15.5,10.3c-6,2.6-12.5,3.8-19.4,3.8c-13.2,0-24.6-4.8-34.2-14.4
			c-9.6-9.6-14.4-21.1-14.4-34.6V519.7c0-45.9,16.2-85.1,48.6-117.5c32.7-32.7,71.8-49,117.4-49c45.9,0,85.1,16.4,117.5,49
			c32.7,32.4,49,71.6,49,117.5V637.2z M816.5,637.6c-32.4,32.4-71.5,48.6-117.5,48.6c-13.2,0-24.6-4.8-34.2-14.4
			c-9.6-9.6-14.4-21.1-14.4-34.6c0-6.6,1.3-12.9,3.8-18.9c2.5-6,6-11.2,10.3-15.8c4.3-4.5,9.5-8,15.3-10.6
			c5.9-2.5,12.2-3.8,19.1-3.8c18.6,0,34.8-6.6,48.6-19.8c13.5-12.9,20.2-29.1,20.2-48.6c0-18.6-6.8-34.7-20.2-48.2
			s-29.7-20.2-48.6-20.2c-18.9,0-35.1,6.8-48.6,20.2c-13.2,13.2-19.8,29.2-19.8,48.2v176c0,6.9-1.3,13.3-3.8,19.3
			c-2.6,6-6,11.2-10.3,15.5c-4.4,4.3-9.5,7.8-15.5,10.3c-6,2.5-12.5,3.8-19.3,3.8c-13.2,0-24.6-4.8-34.2-14.4
			c-9.6-9.6-14.4-21.1-14.4-34.6v-176c0-45.9,16.2-85.1,48.6-117.5c32.7-32.7,71.8-49,117.4-49c45.9,0,85.1,16.4,117.5,49
			c32.7,32.4,49,71.6,49,117.5C865.5,565.6,849.2,604.9,816.5,637.6z"/>
	</g>
</g>
<g>
	<g>
		<path class="st1" d="M763.7,494.6c1.9,0,1.9-3,0-3C761.8,491.6,761.8,494.6,763.7,494.6L763.7,494.6z"/>
	</g>
</g>
<g>
</g>
<g>
</g>
<g>
</g>
<g>
</g>
<g>
</g>
<g>
</g>
<g>
</g>
<g>
</g>
<g>
</g>
<g>
</g>
<g>
</g>
<g>
</g>
<g>
</g>
<g>
</g>
<g>
</g>
</svg>
